<svg width="400" height="300" viewBox="0 0 400 300" xmlns="http://www.w3.org/2000/svg">
  <defs>
    <linearGradient id="aiAdvantagesGradient" x1="0%" y1="0%" x2="100%" y2="100%">
      <stop offset="0%" style="stop-color:#FF3366;stop-opacity:1" />
      <stop offset="100%" style="stop-color:#FF6B6B;stop-opacity:1" />
    </linearGradient>
    <filter id="aiAdvantagesGlow">
      <feGaussianBlur stdDeviation="2" result="coloredBlur"/>
      <feMerge> 
        <feMergeNode in="coloredBlur"/>
        <feMergeNode in="SourceGraphic"/>
      </feMerge>
    </filter>
  </defs>
  
  <!-- Background -->
  <rect width="400" height="300" fill="#0a0a0a"/>
  
  <!-- AI Brain Center -->
  <circle cx="200" cy="120" r="40" fill="url(#aiAdvantagesGradient)" opacity="0.9"/>
  <path d="M 190 120 Q 200 110 210 120 Q 200 130 190 120" fill="#fff" opacity="0.9"/>
  <path d="M 195 115 Q 200 110 205 115" fill="#fff" opacity="0.9"/>
  <path d="M 195 125 Q 200 130 205 125" fill="#fff" opacity="0.9"/>
  
  <!-- Advantages Side (Left) -->
  <rect x="50" y="50" width="120" height="80" fill="rgba(0,245,255,0.2)" rx="8" stroke="#00F5FF" stroke-width="2"/>
  <text x="110" y="70" text-anchor="middle" fill="#00F5FF" font-family="Arial, sans-serif" font-size="12" font-weight="bold">ADVANTAGES</text>
  <text x="60" y="85" fill="#fff" font-family="Arial, sans-serif" font-size="8">• Efficiency</text>
  <text x="60" y="95" fill="#fff" font-family="Arial, sans-serif" font-size="8">• Automation</text>
  <text x="60" y="105" fill="#fff" font-family="Arial, sans-serif" font-size="8">• Innovation</text>
  <text x="60" y="115" fill="#fff" font-family="Arial, sans-serif" font-size="8">• Precision</text>
  
  <!-- Disadvantages Side (Right) -->
  <rect x="230" y="50" width="120" height="80" fill="rgba(255,51,102,0.2)" rx="8" stroke="#FF3366" stroke-width="2"/>
  <text x="290" y="70" text-anchor="middle" fill="#FF3366" font-family="Arial, sans-serif" font-size="12" font-weight="bold">DISADVANTAGES</text>
  <text x="240" y="85" fill="#fff" font-family="Arial, sans-serif" font-size="8">• Job Displacement</text>
  <text x="240" y="95" fill="#fff" font-family="Arial, sans-serif" font-size="8">• Bias</text>
  <text x="240" y="105" fill="#fff" font-family="Arial, sans-serif" font-size="8">• Privacy</text>
  <text x="240" y="115" fill="#fff" font-family="Arial, sans-serif" font-size="8">• Ethics</text>
  
  <!-- Balance Scale -->
  <line x1="200" y1="180" x2="200" y2="220" stroke="#fff" stroke-width="3"/>
  <line x1="120" y1="220" x2="280" y2="220" stroke="#fff" stroke-width="3"/>
  <circle cx="120" cy="220" r="15" fill="rgba(0,245,255,0.3)" stroke="#00F5FF" stroke-width="2"/>
  <circle cx="280" cy="220" r="15" fill="rgba(255,51,102,0.3)" stroke="#FF3366" stroke-width="2"/>
  
  <!-- Technology Icons -->
  <rect x="80" y="240" width="60" height="40" fill="url(#aiAdvantagesGradient)" opacity="0.8" rx="5"/>
  <text x="110" y="265" text-anchor="middle" fill="#fff" font-family="Arial, sans-serif" font-size="8" font-weight="bold">ROBOTICS</text>
  
  <rect x="260" y="240" width="60" height="40" fill="url(#aiAdvantagesGradient)" opacity="0.8" rx="5"/>
  <text x="290" y="265" text-anchor="middle" fill="#fff" font-family="Arial, sans-serif" font-size="8" font-weight="bold">ETHICS</text>
  
  <!-- AI Applications -->
  <circle cx="100" cy="80" r="8" fill="#00F5FF" opacity="0.8"/>
  <text x="100" y="85" text-anchor="middle" fill="#0a0a0a" font-family="Arial, sans-serif" font-size="8" font-weight="bold">+</text>
  
  <circle cx="300" cy="80" r="8" fill="#FF3366" opacity="0.8"/>
  <text x="300" y="85" text-anchor="middle" fill="#fff" font-family="Arial, sans-serif" font-size="8" font-weight="bold">-</text>
  
  <!-- Connection Lines -->
  <line x1="108" y1="80" x2="192" y2="120" stroke="#00F5FF" stroke-width="2" opacity="0.6"/>
  <line x1="292" y1="80" x2="208" y2="120" stroke="#FF3366" stroke-width="2" opacity="0.6"/>
  
  <!-- AI Badge -->
  <rect x="50" y="50" width="80" height="25" fill="#FF3366" rx="12"/>
  <text x="90" y="67" text-anchor="middle" fill="#fff" font-family="Arial, sans-serif" font-size="10" font-weight="bold">ARTIFICIAL</text>
  
  <!-- Intelligence Badge -->
  <rect x="270" y="50" width="80" height="25" fill="#00F5FF" rx="12"/>
  <text x="310" y="67" text-anchor="middle" fill="#0a0a0a" font-family="Arial, sans-serif" font-size="10" font-weight="bold">INTELLIGENCE</text>
  
  <!-- Ethical Considerations -->
  <rect x="150" y="180" width="100" height="40" fill="rgba(255,255,255,0.1)" rx="5"/>
  <text x="200" y="200" text-anchor="middle" fill="#fff" font-family="Arial, sans-serif" font-size="8" font-weight="bold">ETHICAL</text>
  <text x="200" y="210" text-anchor="middle" fill="#fff" font-family="Arial, sans-serif" font-size="8" font-weight="bold">BALANCE</text>
  
  <!-- Future Impact -->
  <text x="80" y="200" fill="#00F5FF" font-family="Arial, sans-serif" font-size="16">🚀</text>
  <text x="320" y="200" fill="#FF3366" font-family="Arial, sans-serif" font-size="16">⚠️</text>
  <text x="200" y="160" fill="#FF6B6B" font-family="Arial, sans-serif" font-size="16">⚖️</text>
</svg> 